<?xml version="1.0" encoding="UTF-8" standalone="no"?>
<!-- Created with Inkscape (http://www.inkscape.org/) -->

<svg
   xmlns:dc="http://purl.org/dc/elements/1.1/"
   xmlns:cc="http://creativecommons.org/ns#"
   xmlns:rdf="http://www.w3.org/1999/02/22-rdf-syntax-ns#"
   xmlns:svg="http://www.w3.org/2000/svg"
   xmlns="http://www.w3.org/2000/svg"
   xmlns:sodipodi="http://sodipodi.sourceforge.net/DTD/sodipodi-0.dtd"
   xmlns:inkscape="http://www.inkscape.org/namespaces/inkscape"
   width="90.719353mm"
   height="90.728622mm"
   viewBox="0 0 321.44653 321.47937"
   id="svg3851"
   version="1.1"
   inkscape:version="0.91 r13725"
   sodipodi:docname="footer-bg.svg">
  <defs
     id="defs3853" />
  <sodipodi:namedview
     id="base"
     pagecolor="#ffffff"
     bordercolor="#666666"
     borderopacity="1.0"
     inkscape:pageopacity="0.0"
     inkscape:pageshadow="2"
     inkscape:zoom="0.35"
     inkscape:cx="-591.41985"
     inkscape:cy="-140.68847"
     inkscape:document-units="px"
     inkscape:current-layer="layer1"
     showgrid="false"
     fit-margin-top="0"
     fit-margin-left="0"
     fit-margin-right="0"
     fit-margin-bottom="0"
     inkscape:window-width="1366"
     inkscape:window-height="704"
     inkscape:window-x="0"
     inkscape:window-y="27"
     inkscape:window-maximized="1" />
  <metadata
     id="metadata3856">
    <rdf:RDF>
      <cc:Work
         rdf:about="">
        <dc:format>image/svg+xml</dc:format>
        <dc:type
           rdf:resource="http://purl.org/dc/dcmitype/StillImage" />
        <dc:title></dc:title>
      </cc:Work>
    </rdf:RDF>
  </metadata>
  <g
     inkscape:label="Layer 1"
     inkscape:groupmode="layer"
     id="layer1"
     transform="translate(-436.41985,-91.622934)">
    <g
       inkscape:export-ydpi="90"
       inkscape:export-xdpi="90"
       inkscape:export-filename="/home/lucas/Trabalho/Castro &amp; Barros/logo-para-nota.png"
       transform="matrix(10.386049,0,0,10.386049,-10022.346,-17853.19)"
       id="g4795"
       style="fill:#eeeeee;fill-opacity:1">
      <path
         sodipodi:nodetypes="ccscccccccccccccccccscc"
         inkscape:connector-curvature="0"
         d="m 1024.7509,1748.004 c 1.2707,-1.4456 2.8974,-2.7468 4.5281,-3.5528 0.251,-0.2501 0.3896,-0.5835 0.3896,-0.9384 0,-0.3551 -0.1386,-0.689 -0.3896,-0.9391 -0.5005,-0.5027 -1.3769,-0.503 -1.8782,0 -0.5975,1.9017 -2.0828,3.1496 -3.4418,4.4811 -0.1386,0.1402 -0.3026,0.3229 -0.5316,0.5806 -0.2418,0.2696 -0.5715,0.6407 -0.9231,0.9914 -1.5299,1.5299 -2.8062,1.8892 -3.8036,1.033 -0.9019,-0.8059 -1.4789,-1.3904 -2.2611,-2.1843 l 0,0 -0.029,-0.03 c -0.4598,-0.4776 -1.8562,-1.9314 -0.7556,-3.2297 2.17,-2.26 4.6148,-4.8425 7.2327,-6.1602 0.5173,-0.5181 0.5173,-1.3613 0,-1.8799 -0.5004,-0.502 -1.3777,-0.502 -1.8789,0 -0.8878,2.716 -3.6265,4.629 -5.7698,6.7722 -2.0531,2.0523 -1.0058,3.9244 1.3491,6.2802 l 1.1606,1.1588 c 0.3312,0.3018 0.628,0.5105 0.9364,0.6551 0.3542,0.1673 0.743,0.2519 1.1538,0.2519 0.8918,0 1.8731,-0.4083 2.6245,-1.0938 0.7219,-0.6593 1.4487,-1.3574 2.2906,-2.1984 z"
         id="path4797"
         style="fill:#eeeeee;fill-opacity:1" />
      <path
         sodipodi:nodetypes="ccssccccccsccccccccccccccccccccsccccccsccccccscc"
         inkscape:connector-curvature="0"
         d="m 1037.6993,1741.995 c -0.196,-0.4174 -0.5003,-0.7661 -0.7455,-1.0265 l -10.7347,-10.7346 c -1.2738,-1.2738 -2.643,-2.4534 -4.0242,-2.4534 -0.7751,0 -1.513,0.3614 -2.256,1.1039 l -11.836,11.8372 c -0.9787,0.9793 -1.3008,1.9741 -0.9839,3.0418 0.2688,0.9026 0.9669,1.8704 2.3337,3.2372 l 10.7439,10.7449 c 0.2545,0.24 0.6001,0.5392 1.016,0.7344 0.3541,0.1683 0.7422,0.2536 1.1555,0.2536 0.8917,0 1.873,-0.41 2.6237,-1.0962 0.7167,-0.6518 1.4428,-1.3499 2.2906,-2.1959 0.3584,-0.3601 0.5316,-0.5376 0.7615,-0.7736 l 0.4362,-0.4504 c 0.4235,-0.4312 1.6297,-1.6483 2.4665,-2.4884 0.8418,-0.8379 2.0572,-2.0448 2.4892,-2.4666 l 0.5122,-0.497 c 0.2071,-0.2028 0.3837,-0.3736 0.7117,-0.7015 0.8478,-0.8495 1.5459,-1.5773 2.1968,-2.2898 0.8614,-0.9458 1.4564,-2.4799 0.8428,-3.7791 z m -2.4157,3.8239 c -0.3415,0.3414 -0.7006,0.6603 -0.9949,0.9213 l -0.076,0.068 c -0.2071,0.1859 -0.3744,0.3355 -0.5012,0.464 l -7.22,7.2193 c -0.1278,0.1276 -0.2748,0.2908 -0.4573,0.4954 l -0.078,0.085 c -0.2823,0.3203 -0.5874,0.66 -0.9187,0.9914 -1.5309,1.5315 -2.7659,1.8394 -3.8055,1.0338 -4.5088,-4.255 -8.0107,-7.9249 -11.9206,-11.8479 0,0 -0.028,-0.019 -0.04,-0.032 -0.7413,-0.8258 -1.7369,-2.0663 -0.7531,-3.228 0.2739,-0.3229 0.5943,-0.6235 0.9011,-0.9147 0.1757,-0.1639 0.333,-0.3114 0.4835,-0.4614 l 9.9282,-9.9295 c 0.1429,-0.1433 0.2858,-0.2942 0.4464,-0.4641 0.3246,-0.3462 0.606,-0.645 0.9297,-0.9192 0.3272,-0.2769 0.6863,-0.4175 1.0667,-0.4175 0.9399,0 1.7953,0.8211 2.1655,1.1752 l 0.026,0.033 c 0.074,0.112 0.2131,0.2558 0.3914,0.4413 l 0.7581,0.7844 c 0.047,0.049 0.096,0.1005 0.1455,0.1487 0.031,0.032 1.0852,1.0849 2.4883,2.4872 2.8232,2.8243 7.0903,7.0922 7.2455,7.2421 0.3359,0.3244 0.5955,0.5432 0.8208,0.8194 0.8486,0.9898 0.503,2.2703 -1.032,3.8052 z"
         id="path4799"
         style="fill:#eeeeee;fill-opacity:1" />
      <path
         inkscape:connector-curvature="0"
         d="m 1030.5283,1739.0773 -4.7427,-4.7418 c -0.1116,-0.1125 -0.2232,-0.2253 -0.3407,-0.3471 -0.4953,-0.5109 -1.0084,-1.0395 -1.6449,-1.3392 -0.3743,-0.1771 -0.7851,-0.2667 -1.2188,-0.2667 -0.945,0 -1.9847,0.4344 -2.7826,1.1614 -0.7717,0.7053 -1.5468,1.4478 -2.4351,2.3375 -0.4497,0.4488 -0.8259,0.8333 -1.2434,1.2586 l -0.3686,0.3782 c -1.5318,1.7561 -3.1042,3.2076 -4.9285,3.982 -0.5164,0.5181 -0.5164,1.3608 0,1.8786 0.2518,0.2514 0.5857,0.3887 0.9391,0.3887 0.355,0 0.688,-0.1373 0.9407,-0.3887 0.7152,-2.6335 3.422,-4.4559 5.4781,-6.5119 0.1614,-0.1619 0.3524,-0.3753 0.5663,-0.6175 l 0.045,-0.049 c 0.262,-0.2937 0.5891,-0.6596 0.9374,-1.0075 1.6363,-1.6355 3.0022,-2.0168 4.0699,-1.0993 1.3032,1.1205 2.2052,2.0714 3.2473,3.1731 l 0.1252,0.1311 -0.1259,0.1267 c -0.3585,0.36 -0.6814,0.691 -1.0364,1.054 l -0.3008,0.3072 c -2.1922,2.188 -4.3845,4.9082 -6.9742,5.9709 -0.2511,0.251 -0.3888,0.5849 -0.3888,0.9399 0,0.3542 0.1377,0.688 0.3888,0.9399 0.2502,0.2502 0.5841,0.3889 0.9398,0.3889 0.3542,0 0.6873,-0.1387 0.94,-0.3905 1.2993,-3.2785 4.799,-5.7755 7.4374,-8.4136 l 0.1318,0.1361 c 0.3516,0.3659 0.7041,0.7307 1.0575,1.0861 0.1444,0.1436 0.3279,0.3085 0.5282,0.4872 l 0.036,0.033 c 1.0761,0.965 3.0793,2.7624 1.7395,4.3433 -0.2915,0.3449 -0.6423,0.6754 -0.9593,0.9756 -0.1919,0.1791 -0.3558,0.3337 -0.5147,0.4919 -2.5414,2.56 -4.9916,5.9443 -8.0586,6.8135 -0.2511,0.251 -0.3905,0.584 -0.3889,0.9399 0,0.3542 0.1378,0.689 0.3889,0.9391 0.2518,0.2511 0.5849,0.3897 0.9408,0.3897 0.3541,0 0.6871,-0.1378 0.9381,-0.3897 1.7034,-3.3526 5.2835,-6.0457 8.0713,-8.8329 1.0372,-1.0379 1.3778,-2.0911 1.0414,-3.2213 -0.2849,-0.9572 -1.0253,-1.9849 -2.4757,-3.4358 z"
         id="path4801"
         style="fill:#eeeeee;fill-opacity:1"
         sodipodi:nodetypes="ccccsccccccsccccccccccccscsccccccccccccscccc" />
    </g>
  </g>
</svg>
